<svg width="30" height="30" viewBox="0 0 30 30" fill="none" xmlns="http://www.w3.org/2000/svg">
<path fill-rule="evenodd" clip-rule="evenodd" d="M8.65855 0H21.342C26.1051 0 30 3.84678 30 8.54623V21.1954C30 25.8959 26.105 29.7414 21.3422 29.7414L8.65855 29.7412C3.89547 29.7412 0 25.8957 0 21.1952V8.54605C0 3.84678 3.89547 0 8.65855 0ZM14.9192 6.84082C19.5477 6.84082 23.3035 10.5967 23.3035 15.2251C23.3035 19.8541 19.5477 23.6095 14.9192 23.6095C10.2895 23.6095 6.53419 19.8541 6.53419 15.2251C6.53419 10.5967 10.2895 6.84082 14.9192 6.84082ZM14.9192 9.67285C17.9842 9.67285 20.4717 12.1598 20.4717 15.2253C20.4717 18.2908 17.9841 20.7783 14.9192 20.7783C11.8532 20.7783 9.36613 18.2908 9.36613 15.2253C9.36613 12.1598 11.8532 9.67285 14.9192 9.67285ZM23.0308 5.67883C23.7826 5.67883 24.3923 6.28849 24.3923 7.03963C24.3923 7.79149 23.7826 8.40115 23.0308 8.40115C22.2794 8.40115 21.67 7.79149 21.67 7.03963C21.67 6.28831 22.2796 5.67883 23.0308 5.67883ZM9.69499 2.42946H20.3066C24.2912 2.42946 27.55 5.67208 27.55 9.63478V20.2995C27.55 24.262 24.2912 27.5041 20.3066 27.5041L9.69499 27.5043C5.71042 27.5043 2.45106 24.2622 2.45106 20.2997V9.6346C2.45106 5.67208 5.71042 2.42946 9.69499 2.42946Z" fill="url(#paint0_linear)"/>
<defs>
<linearGradient id="paint0_linear" x1="17" y1="34.5" x2="6" y2="1.5" gradientUnits="userSpaceOnUse">
<stop offset="0.0739509" stop-color="#FEDA77"/>
<stop offset="0.279943" stop-color="#F58529"/>
<stop offset="0.582309" stop-color="#DD2A7B"/>
<stop offset="0.766354" stop-color="#8134AF"/>
<stop offset="1" stop-color="#515BD4"/>
</linearGradient>
</defs>
</svg>
