<svg width="27" height="27" viewBox="0 0 27 27" fill="none" xmlns="http://www.w3.org/2000/svg">
<path d="M26.019 1.2971L20.5346 0.0314785C19.9387 -0.105631 19.327 0.205502 19.0844 0.764486L16.5531 6.67074C16.3317 7.18753 16.4793 7.79398 16.917 8.1473L20.1127 10.7629C18.2143 14.8077 14.8973 18.1721 10.7682 20.1075L8.15256 16.9118C7.79396 16.4741 7.19279 16.3264 6.67599 16.5479L0.769739 19.0791C0.205481 19.327 -0.105652 19.9387 0.0314575 20.5346L1.29708 26.019C1.42892 26.5885 1.93517 26.9998 2.53107 26.9998C16.0364 26.9998 26.9998 16.0575 26.9998 2.53109C26.9998 1.94046 26.5938 1.42894 26.019 1.2971Z" fill="#CDB30C"/>
</svg>
