<svg width="28" height="23" viewBox="0 0 28 23" fill="none" xmlns="http://www.w3.org/2000/svg">
<path d="M25.1218 5.66748C25.1396 5.9162 25.1396 6.16498 25.1396 6.41369C25.1396 13.9999 19.3655 22.7411 8.81218 22.7411C5.5609 22.7411 2.54062 21.7994 0 20.165C0.461945 20.2182 0.906062 20.236 1.38578 20.236C4.06848 20.236 6.53805 19.33 8.51014 17.7843C5.9873 17.7309 3.87308 16.0787 3.14464 13.8045C3.5 13.8578 3.8553 13.8934 4.22844 13.8934C4.74365 13.8934 5.25891 13.8223 5.73858 13.698C3.10915 13.1649 1.13701 10.8553 1.13701 8.06597V7.99493C1.90094 8.42133 2.78934 8.68782 3.73089 8.72331C2.1852 7.69284 1.17255 5.93398 1.17255 3.94412C1.17255 2.87815 1.45677 1.90099 1.95426 1.0482C4.77914 4.53042 9.02535 6.80449 13.7867 7.05327C13.6979 6.62687 13.6446 6.18275 13.6446 5.73858C13.6446 2.57611 16.203 0 19.3832 0C21.0354 0 22.5278 0.692891 23.5761 1.81218C24.873 1.56346 26.1166 1.08374 27.2182 0.426398C26.7917 1.75891 25.8857 2.8782 24.6953 3.58881C25.8502 3.46451 26.9695 3.14464 27.9999 2.70052C27.2183 3.83753 26.2411 4.85018 25.1218 5.66748Z" fill="#1DA1F2"/>
</svg>
